<?xml version="1.0" encoding="UTF-8" standalone="no"?>
<!DOCTYPE svg PUBLIC "-//W3C//DTD SVG 1.1//EN" "http://www.w3.org/Graphics/SVG/1.1/DTD/svg11.dtd">
<svg width="100%" height="100%" viewBox="0 0 120 120" version="1.1" xmlns="http://www.w3.org/2000/svg" xmlns:xlink="http://www.w3.org/1999/xlink" xml:space="preserve" style="fill-rule:evenodd;clip-rule:evenodd;stroke-linejoin:round;stroke-miterlimit:1.41421;">
    <g transform="matrix(1,0,0,1,-510.35,-503.045)">
        <g transform="matrix(1,0,0,1,417.85,-126.455)">
            <path d="M212.5,689.5C212.5,722.637 185.637,749.5 152.5,749.5C119.363,749.5 92.5,722.637 92.5,689.5C92.5,656.363 119.363,629.5 152.5,629.5C185.637,629.5 212.5,656.363 212.5,689.5" style="fill:white;fill-rule:nonzero;"/>
        </g>
        <g transform="matrix(1,0,0,1,417.85,-126.455)">
            <path d="M163.5,722.5C151.921,722.5 142.5,713.079 142.5,701.5C142.5,689.921 151.921,680.5 163.5,680.5C175.079,680.5 184.5,689.921 184.5,701.5C184.5,713.079 175.079,722.5 163.5,722.5M129,688C129,676.421 138.421,667 150,667C157.964,667 164.891,671.465 168.449,678.016C166.851,677.679 165.196,677.5 163.5,677.5C150.267,677.5 139.5,688.267 139.5,701.5C139.5,703.191 139.678,704.84 140.012,706.433C133.465,702.877 129,695.961 129,688M115.5,674.5C115.5,662.921 124.921,653.5 136.5,653.5C144.471,653.5 151.404,657.972 154.958,664.532C153.356,664.194 151.702,664 150,664C136.767,664 126,674.767 126,688C126,689.697 126.196,691.346 126.532,692.943C119.974,689.39 115.5,682.469 115.5,674.5M172.306,679.181C169.865,673.03 164.958,668.121 158.807,665.683C155.284,656.803 146.62,650.5 136.5,650.5C123.267,650.5 112.5,661.267 112.5,674.5C112.5,684.624 118.808,693.292 127.694,696.812C130.133,702.96 135.033,707.867 141.181,710.307C144.701,719.194 153.375,725.5 163.5,725.5C176.733,725.5 187.5,714.733 187.5,701.5C187.5,691.375 181.194,682.7 172.306,679.181" style="fill:rgb(26,69,120);fill-rule:nonzero;"/>
        </g>
        <g transform="matrix(1,0,0,1,417.85,-126.455)">
            <path d="M165.027,711.135L165.027,705.428C165.342,705.371 165.652,705.3 165.954,705.208L170.615,708.304C171.195,708.69 171.86,710.221 171.873,710.208C171.953,710.526 171.972,710.84 171.95,711.135L165.027,711.135ZM155.051,711.135C155.027,710.845 155.044,710.536 155.12,710.222C155.136,710.237 155.805,708.711 156.385,708.325L161.083,705.204C161.373,705.293 161.671,705.359 161.973,705.416L161.973,711.135L155.051,711.135ZM163.527,691.886C164.25,691.886 164.938,692.033 165.568,692.295C167.475,693.111 168.816,695.005 168.816,697.207C168.816,700.153 166.419,702.55 163.473,702.55C162.75,702.55 162.062,702.402 161.432,702.141C159.525,701.324 158.184,699.43 158.184,697.228C158.184,694.282 160.581,691.886 163.527,691.886M172.329,705.826L168.933,703.57C170.727,702.038 171.869,699.766 171.869,697.228C171.869,693.761 169.742,690.783 166.726,689.526C165.726,689.101 164.626,688.865 163.473,688.865C158.873,688.865 155.131,692.607 155.131,697.207C155.131,699.745 156.273,702.018 158.067,703.549L154.671,705.805C152.799,707.049 151.681,709.749 152.124,711.952C152.124,711.952 152.917,714.135 154.729,714.135L172.271,714.135C174.5,714.135 174.876,711.973 174.876,711.973C175.32,709.77 174.201,707.07 172.329,705.826" style="fill:rgb(26,69,120);fill-rule:nonzero;"/>
        </g>
    </g>
</svg>
