<?xml version="1.0" encoding="UTF-8" standalone="no"?>
<svg
   xmlns:dc="http://purl.org/dc/elements/1.1/"
   xmlns:cc="http://creativecommons.org/ns#"
   xmlns:rdf="http://www.w3.org/1999/02/22-rdf-syntax-ns#"
   xmlns:svg="http://www.w3.org/2000/svg"
   xmlns="http://www.w3.org/2000/svg"
   xmlns:sodipodi="http://sodipodi.sourceforge.net/DTD/sodipodi-0.dtd"
   xmlns:inkscape="http://www.inkscape.org/namespaces/inkscape"
   width="260.66217"
   height="61.584156"
   viewBox="0 0 260.66217 61.584156"
   version="1.1"
   xml:space="preserve"
   style="clip-rule:evenodd;fill-rule:evenodd;stroke-linejoin:round;stroke-miterlimit:1.41421"
   id="svg122"
   sodipodi:docname="logo.svg"
   inkscape:version="1.0.2 (e86c870879, 2021-01-15)"><metadata
   id="metadata128"><rdf:RDF><cc:Work
       rdf:about=""><dc:format>image/svg+xml</dc:format><dc:type
         rdf:resource="http://purl.org/dc/dcmitype/StillImage" /></cc:Work></rdf:RDF></metadata><defs
   id="defs126" /><sodipodi:namedview
   pagecolor="#ffffff"
   bordercolor="#666666"
   borderopacity="1"
   objecttolerance="10"
   gridtolerance="10"
   guidetolerance="10"
   inkscape:pageopacity="0"
   inkscape:pageshadow="2"
   inkscape:window-width="1920"
   inkscape:window-height="1052"
   id="namedview124"
   showgrid="false"
   inkscape:zoom="6.613925"
   inkscape:cx="123.67355"
   inkscape:cy="30.792078"
   inkscape:window-x="0"
   inkscape:window-y="28"
   inkscape:window-maximized="1"
   inkscape:current-layer="svg122" />
    <g
   transform="matrix(0.30412,0,0,0.109327,-59.843821,-81.246374)"
   id="g120">
        <g
   id="g118">
            <g
   id="g116">
                <g
   transform="matrix(1,0,0,2.78174,0,-1212.58)"
   id="g98">
                    <path
   d="m 361.777,790.66 c 0,0.3 0,0.6 0,0.9 z m 0,-34.5 c 0,0.3 0,0.6 0,0.9 z m 6.3,149.4 -38.1,-65.7 c 18.6,-8.4 31.5,-27 31.8,-48.3 0,-0.3 0,-0.6 0,-0.9 v -33.6 c 0,-0.3 0,-0.6 0,-0.9 -0.6,-29.4 -24.6,-53.1 -54,-53.1 h -111 v 202.5 h 39.6 v -162.6 h 70.5 c 8.4,0 15,6.6 15,15 v 31.8 c 0,8.4 -6.6,15 -15,15 h -42.9 l -12,39.9 h 35.1 l 35.1,60.9 z"
   style="fill:#01a0e2;fill-rule:nonzero"
   id="path96" />
                </g>
                <g
   transform="matrix(1,0,0,2.78174,0,-1212.58)"
   id="g102">
                    <path
   d="m 451.777,784.36 -20.1,20.1 v -46.5 c 0,-8.4 6.9,-15 15,-15 h 74.4 l 12,-39.9 h -87 c -29.7,0 -54,24.3 -54,54 v 94.5 c 0,29.7 24.3,54 54,54 h 87 v -39.6 h -86.4 c -8.1,0 -15,-6.9 -15,-15 v -26.7 h 101.4 v -39.9 z"
   style="fill:#01a0e2;fill-rule:nonzero"
   id="path100" />
                </g>
                <g
   transform="matrix(1,0,0,2.78174,0,-1212.58)"
   id="g106">
                    <path
   d="m 689.377,905.56 -12,-39.6 h -61.2 c -8.1,0 -15,-6.9 -15,-15 v -147.9 h -39.6 v 148.5 c 0,29.7 24.3,54 54,54 z"
   style="fill:#1a4578;fill-rule:nonzero"
   id="path104" />
                </g>
                <g
   transform="matrix(1,0,0,2.78174,0,-1212.58)"
   id="g110">
                    <path
   d="m 869.377,757.06 c 0,-29.7 -24.3,-54 -54,-54 h -57 c -29.7,0 -54,24.3 -54,54 v 148.5 h 39.6 v -147.6 c 0,-8.4 6.9,-15 15,-15 h 55.5 c 8.4,0 15,6.6 15,15 v 46.8 h -58.5 l -12,39.9 h 70.5 v 60.9 h 39.9 z"
   style="fill:#1a4578;fill-rule:nonzero"
   id="path108" />
                </g>
                <g
   transform="matrix(1,0,0,2.78174,0,-1212.58)"
   id="g114">
                    <path
   d="m 1053.88,894.46 v -191.4 h -39.9 v 126 l -76.503,-126 h -39.6 v 202.5 h 39.6 v -126 l 76.503,126 h 39.9 z"
   style="fill:#1a4578;fill-rule:nonzero"
   id="path112" />
                </g>
            </g>
        </g>
    </g>
</svg>
