<?xml version="1.0" encoding="UTF-8" standalone="no"?>
<svg
   xmlns:sketch="http://www.bohemiancoding.com/sketch/ns"
   xmlns:dc="http://purl.org/dc/elements/1.1/"
   xmlns:cc="http://creativecommons.org/ns#"
   xmlns:rdf="http://www.w3.org/1999/02/22-rdf-syntax-ns#"
   xmlns:svg="http://www.w3.org/2000/svg"
   xmlns="http://www.w3.org/2000/svg"
   xmlns:sodipodi="http://sodipodi.sourceforge.net/DTD/sodipodi-0.dtd"
   xmlns:inkscape="http://www.inkscape.org/namespaces/inkscape"
   width="32px"
   height="32px"
   viewBox="0 0 32 32"
   version="1.1"
   id="svg891"
   sodipodi:docname="mail.svg"
   inkscape:version="1.0.2 (e86c870879, 2021-01-15)">
  <metadata
     id="metadata895">
    <rdf:RDF>
      <cc:Work
         rdf:about="">
        <dc:format>image/svg+xml</dc:format>
        <dc:type
           rdf:resource="http://purl.org/dc/dcmitype/StillImage" />
      </cc:Work>
    </rdf:RDF>
  </metadata>
  <sodipodi:namedview
     pagecolor="#ffffff"
     bordercolor="#666666"
     borderopacity="1"
     objecttolerance="10"
     gridtolerance="10"
     guidetolerance="10"
     inkscape:pageopacity="0"
     inkscape:pageshadow="2"
     inkscape:window-width="1684"
     inkscape:window-height="872"
     id="namedview893"
     showgrid="false"
     inkscape:zoom="17.6875"
     inkscape:cx="16"
     inkscape:cy="16"
     inkscape:window-x="0"
     inkscape:window-y="28"
     inkscape:window-maximized="0"
     inkscape:current-layer="svg891" />
  <!-- Generator: Sketch 3.0.3 (7891) - http://www.bohemiancoding.com/sketch -->
  <title
     id="title882">icon 6 mail envelope closed</title>
  <desc
     id="desc884">Created with Sketch.</desc>
  <defs
     id="defs886" />
  <g
     id="Page-1"
     stroke="none"
     stroke-width="1"
     fill="none"
     fill-rule="evenodd"
     sketch:type="MSPage"
     style="stroke:#ffffff;fill:#ffffff">
    <g
       id="icon-6-mail-envelope-closed"
       sketch:type="MSArtboardGroup"
       fill="#000000"
       style="stroke:#ffffff;fill:#ffffff">
      <path
         d="M25.9230769,21.0769231 L20,16 L25.9230769,10.9230769 L25.9230769,10.9230769 L25.1153846,10.1153846 L16.5,17.5 L7.88461538,10.1153846 L7.07692308,10.9230769 L7.07692308,10.9230769 L13,16 L7.07692308,21.0769231 L7.07692308,21.0769231 L7.88461538,21.8846154 L13.875,16.75 L16.5,19 L19.125,16.75 L25.1153846,21.8846154 L25.9230769,21.0769231 L25.9230769,21.0769231 Z M6.00359486,8 C4.89703997,8 4,8.89451376 4,9.99406028 L4,22.0059397 C4,23.1072288 4.88976324,24 6.00359486,24 L26.9964051,24 C28.10296,24 29,23.1054862 29,22.0059397 L29,9.99406028 C29,8.8927712 28.1102368,8 26.9964051,8 L6.00359486,8 L6.00359486,8 Z"
         id="mail-envelope-closed"
         sketch:type="MSShapeGroup"
         style="stroke:#ffffff;fill:#ffffff" />
    </g>
  </g>
</svg>
