<?xml version="1.0" encoding="UTF-8" standalone="no"?>
<svg
   xmlns:dc="http://purl.org/dc/elements/1.1/"
   xmlns:cc="http://creativecommons.org/ns#"
   xmlns:rdf="http://www.w3.org/1999/02/22-rdf-syntax-ns#"
   xmlns:svg="http://www.w3.org/2000/svg"
   xmlns="http://www.w3.org/2000/svg"
   xmlns:sodipodi="http://sodipodi.sourceforge.net/DTD/sodipodi-0.dtd"
   xmlns:inkscape="http://www.inkscape.org/namespaces/inkscape"
   viewBox="0 0 24 24"
   fill="none"
   stroke="currentColor"
   stroke-width="2"
   stroke-linecap="round"
   stroke-linejoin="round"
   class="feather feather-phone-call"
   version="1.1"
   id="svg56"
   sodipodi:docname="phone.svg"
   inkscape:version="1.0.2 (e86c870879, 2021-01-15)">
  <metadata
     id="metadata62">
    <rdf:RDF>
      <cc:Work
         rdf:about="">
        <dc:format>image/svg+xml</dc:format>
        <dc:type
           rdf:resource="http://purl.org/dc/dcmitype/StillImage" />
      </cc:Work>
    </rdf:RDF>
  </metadata>
  <defs
     id="defs60">
    <filter
       style="color-interpolation-filters:sRGB;"
       inkscape:label="Colorize"
       id="filter156">
      <feComposite
         in2="SourceGraphic"
         operator="arithmetic"
         k1="2.34863"
         k2="3.3008"
         result="composite1"
         id="feComposite142" />
      <feColorMatrix
         in="composite1"
         values="1"
         type="saturate"
         result="colormatrix1"
         id="feColorMatrix144" />
      <feFlood
         flood-opacity="1"
         flood-color="rgb(255,255,255)"
         result="flood1"
         id="feFlood146" />
      <feBlend
         in="flood1"
         in2="colormatrix1"
         mode="multiply"
         result="blend1"
         id="feBlend148" />
      <feBlend
         in2="blend1"
         mode="screen"
         result="blend2"
         id="feBlend150" />
      <feColorMatrix
         in="blend2"
         values="1"
         type="saturate"
         result="colormatrix2"
         id="feColorMatrix152" />
      <feComposite
         in="colormatrix2"
         in2="SourceGraphic"
         operator="in"
         k2="1"
         result="composite2"
         id="feComposite154" />
    </filter>
  </defs>
  <sodipodi:namedview
     pagecolor="#ffffff"
     bordercolor="#666666"
     borderopacity="1"
     objecttolerance="10"
     gridtolerance="10"
     guidetolerance="10"
     inkscape:pageopacity="0"
     inkscape:pageshadow="2"
     inkscape:window-width="1920"
     inkscape:window-height="1052"
     id="namedview58"
     showgrid="false"
     inkscape:zoom="35.708333"
     inkscape:cx="6.4410735"
     inkscape:cy="12"
     inkscape:window-x="0"
     inkscape:window-y="28"
     inkscape:window-maximized="1"
     inkscape:current-layer="svg56" />
  <path
     d="m 14.522861,5.514396 c 1.21502,0.2370558 2.268877,0.9076701 2.995923,1.8461928 0.468514,0.6047926 0.801316,1.3208375 0.954077,2.1038072 m -3.95,-7.95 c 4.179548,0.4643142 7.480426,3.7610394 7.95,7.94 m -1,7.98 v 3 c 0.0048,1.178865 -1.005911,2.106108 -2.18,2 -3.077166,-0.334359 -6.033001,-1.385855 -8.63,-3.07 -2.4161717,-1.535336 -4.4646636,-3.583828 -5.9999996,-6 -1.6900219,-2.608796 -2.741757,-5.5790054 -3.07,-8.67 -0.1057402,-1.1701169 0.8151156,-2.1788936 1.99,-2.18 h 3 c 1.0038641,-0.00988 1.8595008,0.7259675 2,1.72 0.126623,0.9600665 0.3614495,1.9027269 0.7,2.81 0.274735,0.730875 0.099015,1.5548063 -0.45,2.11 l -1.27,1.27 c 1.4235554,2.503546 3.4964536,4.576444 5.9999996,6 l 1.27,-1.27 c 0.555194,-0.549015 1.379125,-0.724735 2.11,-0.45 0.907273,0.338551 1.849934,0.573377 2.81,0.7 1.005563,0.14186 1.74519,1.014793 1.72,2.03 z"
     id="path54"
     style="filter:url(#filter156);fill:#ffffff;stroke:#ffffff"
     sodipodi:nodetypes="cscccccccccccccccccccc" />
</svg>
