<?xml version="1.0" encoding="UTF-8" standalone="no"?>
<!DOCTYPE svg PUBLIC "-//W3C//DTD SVG 1.1//EN" "http://www.w3.org/Graphics/SVG/1.1/DTD/svg11.dtd">
<svg width="100%" height="100%" viewBox="0 0 120 120" version="1.1" xmlns="http://www.w3.org/2000/svg" xmlns:xlink="http://www.w3.org/1999/xlink" xml:space="preserve" style="fill-rule:evenodd;clip-rule:evenodd;stroke-linejoin:round;stroke-miterlimit:1.41421;">
    <g transform="matrix(1,0,0,1,-673.419,-337.337)">
        <g transform="matrix(1,0,0,1,-135.081,-113.163)">
            <path d="M928.5,510.5C928.5,543.637 901.637,570.5 868.5,570.5C835.363,570.5 808.5,543.637 808.5,510.5C808.5,477.363 835.363,450.5 868.5,450.5C901.637,450.5 928.5,477.363 928.5,510.5" style="fill:white;fill-rule:nonzero;"/>
        </g>
        <g transform="matrix(1,0,0,1,-135.081,-113.163)">
            <path d="M901.006,513.548C901.006,514.375 900.329,515.051 899.502,515.051L894.011,515.051C893.283,519.336 891.571,523.287 889.115,526.667L893.058,530.61C893.642,531.195 893.642,532.151 893.058,532.736L888.747,537.046C888.163,537.631 887.207,537.631 886.622,537.046L882.637,533.062C879.256,535.454 875.321,537.113 871.063,537.798L871.063,543.491C871.063,544.318 870.386,544.994 869.559,544.994L863.463,544.994C862.637,544.994 861.961,544.318 861.961,543.491L861.961,537.753C859.644,537.358 857.428,536.67 855.343,535.738L855.343,531.688C858.682,533.452 862.481,534.456 866.511,534.456C879.746,534.456 890.511,523.689 890.511,510.456C890.511,497.222 879.746,486.456 866.511,486.456C861.506,486.456 856.865,488.013 853.014,490.645L851.55,489.673L851.796,489.472C853.148,488.366 854.139,486.933 854.696,485.335C856.968,484.246 859.4,483.441 861.961,483.005L861.961,477.509C861.961,476.683 862.637,476.006 863.463,476.006L869.559,476.006C870.386,476.006 871.063,476.683 871.063,477.509L871.063,482.96C875.381,483.654 879.366,485.35 882.779,487.797L886.622,483.954C887.207,483.37 888.163,483.37 888.747,483.954L893.058,488.264C893.642,488.849 893.642,489.806 893.058,490.39L889.216,494.232C891.664,497.645 893.36,501.631 894.055,505.949L899.502,505.949C900.329,505.949 901.006,506.626 901.006,507.452L901.006,513.548ZM856.167,492.739L855.757,492.467C858.906,490.57 862.574,489.456 866.511,489.456C878.092,489.456 887.511,498.876 887.511,510.456C887.511,522.035 878.092,531.456 866.511,531.456C862.404,531.456 858.581,530.252 855.343,528.201L855.343,519.02C855.343,517.37 855.619,514.612 855.944,512.994L858.764,499.008C859.216,496.761 858.074,494.008 856.167,492.739M852.636,543.469C852.636,544.475 851.818,545.293 850.813,545.293L849.467,545.293C848.462,545.293 847.644,544.475 847.644,543.469L847.644,523.888C847.644,520.322 847.583,519.39 846.145,519.39C844.709,519.39 844.646,520.404 844.646,523.92L844.646,543.469C844.646,544.441 843.759,545.293 842.747,545.293L841.038,545.293C840.031,545.293 839.213,544.475 839.213,543.469L839.213,519.02C839.213,517.194 838.92,514.251 838.559,512.46L835.741,498.473C835.502,497.289 836.175,495.664 837.183,494.995L843.031,491.109L843.139,491.143C843.5,491.256 843.904,491.351 844.376,491.431L844.571,491.464L844.571,501.304C844.571,502.05 845.179,502.656 845.925,502.656C846.672,502.656 847.279,502.05 847.279,501.304L847.279,491.464L847.475,491.431C847.944,491.351 848.35,491.257 848.712,491.143L848.819,491.11L854.668,494.995C855.674,495.663 856.348,497.288 856.108,498.473L853.29,512.46C852.93,514.251 852.636,517.194 852.636,519.02L852.636,543.469ZM839.347,482.285C839.347,478.657 842.298,475.706 845.925,475.706C849.553,475.706 852.504,478.657 852.504,482.285C852.504,485.913 849.553,488.864 845.925,488.864C842.298,488.864 839.347,485.913 839.347,482.285M902.509,502.943L896.716,502.943C896.641,502.943 896.569,502.955 896.496,502.965C895.756,499.982 894.582,497.171 893.04,494.601C893.097,494.559 893.161,494.537 893.213,494.487L897.309,490.39C897.894,489.806 897.894,488.849 897.309,488.264L888.747,479.703C888.163,479.118 887.207,479.118 886.622,479.703L882.526,483.799C882.475,483.85 882.453,483.917 882.41,483.973C879.841,482.432 877.03,481.259 874.047,480.519C874.058,480.446 874.069,480.373 874.069,480.297L874.069,474.503C874.069,473.677 873.392,473 872.565,473L860.458,473C859.632,473 858.954,473.677 858.954,474.503L858.954,480.297C858.954,480.392 858.966,480.485 858.983,480.575C857.68,480.91 856.417,481.343 855.189,481.842C854.954,476.928 850.896,473 845.925,473C840.805,473 836.64,477.165 836.64,482.285C836.64,485.076 837.884,487.696 840.054,489.472L840.3,489.673L835.684,492.739C833.775,494.008 832.635,496.762 833.088,499.007L835.906,512.994C836.232,514.613 836.507,517.372 836.507,519.02L836.507,543.469C836.507,545.968 838.54,548 841.038,548L842.747,548C843.938,548 845.076,547.534 845.954,546.687L846.119,546.527L846.281,546.689C847.136,547.534 848.269,548 849.467,548L850.813,548C853.31,548 855.343,545.968 855.343,543.469L855.343,538.979C856.545,539.459 857.777,539.875 859.049,540.199C858.992,540.358 858.954,540.526 858.954,540.704L858.954,546.497C858.954,547.324 859.632,548 860.458,548L872.565,548C873.392,548 874.069,547.324 874.069,546.497L874.069,540.704C874.069,540.546 874.038,540.396 873.992,540.252C876.949,539.523 879.74,538.368 882.295,536.852C882.361,536.973 882.423,537.098 882.526,537.201L886.622,541.298C887.207,541.882 888.163,541.882 888.747,541.298L897.309,532.736C897.894,532.151 897.894,531.195 897.309,530.61L893.213,526.514C893.131,526.433 893.031,526.39 892.938,526.332C894.49,523.782 895.68,520.992 896.442,518.029C896.531,518.046 896.622,518.057 896.716,518.057L902.509,518.057C903.336,518.057 904.011,517.381 904.011,516.554L904.011,504.446C904.011,503.62 903.336,502.943 902.509,502.943" style="fill:rgb(26,69,120);fill-rule:nonzero;"/>
        </g>
    </g>
</svg>
