<?xml version="1.0" encoding="UTF-8" standalone="no"?>
<!DOCTYPE svg PUBLIC "-//W3C//DTD SVG 1.1//EN" "http://www.w3.org/Graphics/SVG/1.1/DTD/svg11.dtd">
<svg width="100%" height="100%" viewBox="0 0 120 120" version="1.1" xmlns="http://www.w3.org/2000/svg" xmlns:xlink="http://www.w3.org/1999/xlink" xml:space="preserve" style="fill-rule:evenodd;clip-rule:evenodd;stroke-linejoin:round;stroke-miterlimit:1.41421;">
    <g transform="matrix(1,0,0,1,-810.93,-507.868)">
        <g transform="matrix(1,0,0,1,2.42976,236.368)">
            <path d="M928.5,331.5C928.5,364.637 901.637,391.5 868.5,391.5C835.363,391.5 808.5,364.637 808.5,331.5C808.5,298.363 835.363,271.5 868.5,271.5C901.637,271.5 928.5,298.363 928.5,331.5" style="fill:white;fill-rule:nonzero;"/>
        </g>
        <g transform="matrix(1,0,0,1,2.42976,236.368)">
            <path d="M877.393,327.718L867.273,337.838L859.607,330.173C859.021,329.587 858.071,329.587 857.485,330.173C856.9,330.758 856.9,331.708 857.485,332.294L866.212,341.02C866.798,341.606 867.747,341.606 868.333,341.02L879.514,329.839C880.1,329.254 880.1,328.304 879.514,327.718C878.929,327.132 877.979,327.132 877.393,327.718" style="fill:rgb(26,69,120);fill-rule:nonzero;"/>
        </g>
        <g transform="matrix(1,0,0,1,2.42976,236.368)">
            <path d="M902.962,320.017L900.633,331.575C900.29,333.276 900.011,336.075 900.011,337.812L900.011,357.978C900.011,358.806 899.338,359.478 898.511,359.478L897.554,359.478C896.721,359.478 895.989,358.777 895.989,357.978L895.989,342.197C895.989,338.922 895.989,337.697 894.364,337.697C892.739,337.697 892.739,338.922 892.739,342.197L892.739,357.978C892.739,358.806 892.066,359.478 891.239,359.478L890.597,359.478C889.77,359.478 889.097,358.806 889.097,357.978L889.097,337.812C889.097,336.705 888.983,335.171 888.812,333.761L888.812,318.943C888.812,318.046 888.542,317.214 888.088,316.512L892.11,313.84C892.417,313.934 892.733,314.006 893.054,314.064L896.054,314.064C896.375,314.006 896.691,313.934 896.998,313.84L901.696,316.961C902.564,317.538 903.168,318.995 902.962,320.017M885.812,349.797C885.812,350.624 885.139,351.297 884.312,351.297L852.687,351.297C851.86,351.297 851.187,350.624 851.187,349.797L851.187,318.943C851.187,318.116 851.86,317.443 852.687,317.443L884.312,317.443C885.139,317.443 885.812,318.116 885.812,318.943L885.812,349.797ZM847.903,357.978C847.903,358.806 847.23,359.478 846.403,359.478L845.76,359.478C844.933,359.478 844.26,358.806 844.26,357.978L844.26,342.197C844.26,338.922 844.26,337.697 842.635,337.697C841.01,337.697 841.01,338.922 841.01,342.197L841.01,357.978C841.01,358.777 840.279,359.478 839.446,359.478L838.489,359.478C837.662,359.478 836.989,358.806 836.989,357.978L836.989,337.812C836.989,336.075 836.71,333.276 836.366,331.575L834.038,320.017C833.832,318.995 834.435,317.538 835.303,316.961L840.002,313.84C840.309,313.934 840.625,314.006 840.946,314.064L843.946,314.064C844.267,314.006 844.583,313.934 844.889,313.84L848.911,316.512C848.458,317.214 848.187,318.046 848.187,318.943L848.187,333.76C848.017,335.17 847.903,336.705 847.903,337.812L847.903,357.978ZM842.446,300.522C845.391,300.522 847.788,302.918 847.788,305.864C847.788,308.81 845.391,311.207 842.446,311.207C839.5,311.207 837.103,308.81 837.103,305.864C837.103,302.918 839.5,300.522 842.446,300.522M894.554,300.522C897.5,300.522 899.897,302.918 899.897,305.864C899.897,308.81 897.5,311.207 894.554,311.207C891.608,311.207 889.211,308.81 889.211,305.864C889.211,302.918 891.608,300.522 894.554,300.522M903.356,314.462L899.96,312.206C901.754,310.675 902.897,308.402 902.897,305.864C902.897,301.264 899.154,297.522 894.554,297.522C889.954,297.522 886.211,301.264 886.211,305.864C886.211,308.402 887.354,310.675 889.148,312.206L885.752,314.462C885.677,314.512 885.615,314.581 885.544,314.635C885.15,314.522 884.742,314.443 884.312,314.443L852.687,314.443C852.259,314.443 851.853,314.522 851.461,314.634C851.389,314.578 851.323,314.512 851.248,314.462L847.852,312.206C849.646,310.675 850.788,308.402 850.788,305.864C850.788,301.264 847.046,297.522 842.446,297.522C837.845,297.522 834.103,301.264 834.103,305.864C834.103,308.402 835.246,310.675 837.039,312.206L833.643,314.462C831.772,315.706 830.653,318.406 831.097,320.609L833.426,332.167C833.731,333.682 833.989,336.266 833.989,337.812L833.989,357.978C833.989,360.46 836.008,362.478 838.489,362.478L839.446,362.478C840.681,362.478 841.803,361.992 842.626,361.204C843.437,361.992 844.543,362.478 845.76,362.478L846.403,362.478C848.884,362.478 850.903,360.46 850.903,357.978L850.903,353.924C851.451,354.162 852.053,354.297 852.687,354.297L884.312,354.297C884.947,354.297 885.549,354.162 886.097,353.924L886.097,357.978C886.097,360.46 888.116,362.478 890.597,362.478L891.239,362.478C892.457,362.478 893.563,361.992 894.374,361.204C895.197,361.992 896.319,362.478 897.554,362.478L898.511,362.478C900.992,362.478 903.011,360.46 903.011,357.978L903.011,337.812C903.011,336.266 903.269,333.682 903.574,332.167L905.903,320.609C906.347,318.406 905.228,315.706 903.356,314.462" style="fill:rgb(26,69,120);fill-rule:nonzero;"/>
        </g>
    </g>
</svg>
