<?xml version="1.0" encoding="UTF-8" standalone="no"?>
<!DOCTYPE svg PUBLIC "-//W3C//DTD SVG 1.1//EN" "http://www.w3.org/Graphics/SVG/1.1/DTD/svg11.dtd">
<svg width="100%" height="100%" viewBox="0 0 120 120" version="1.1" xmlns="http://www.w3.org/2000/svg" xmlns:xlink="http://www.w3.org/1999/xlink" xml:space="preserve" style="fill-rule:evenodd;clip-rule:evenodd;stroke-linejoin:round;stroke-miterlimit:1.41421;">
    <g transform="matrix(1,0,0,1,-631.492,-499.418)">
        <g transform="matrix(1,0,0,1,538.992,-130.082)">
            <path d="M212.5,689.5C212.5,722.637 185.637,749.5 152.5,749.5C119.363,749.5 92.5,722.637 92.5,689.5C92.5,656.363 119.363,629.5 152.5,629.5C185.637,629.5 212.5,656.363 212.5,689.5" style="fill:white;fill-rule:nonzero;"/>
        </g>
        <g transform="matrix(1,0,0,1,539.152,227.867)">
            <path d="M162.504,349.916L164.839,338.506C165.282,336.303 164.164,333.604 162.292,332.36L158.184,329.631C160.2,327.981 161.489,325.475 161.489,322.674C161.489,317.717 157.457,313.684 152.5,313.684C147.544,313.684 143.511,317.717 143.511,322.674C143.511,325.475 144.8,327.981 146.816,329.63L142.708,332.36C140.836,333.603 139.717,336.304 140.162,338.506L142.443,349.884C135.929,346.314 131.5,339.393 131.5,331.456C131.5,319.876 140.921,310.456 152.5,310.456C164.08,310.456 173.5,319.876 173.5,331.456C173.5,339.416 169.048,346.355 162.504,349.916M146.511,322.674C146.511,319.371 149.198,316.684 152.5,316.684C155.802,316.684 158.489,319.371 158.489,322.674C158.489,325.976 155.802,328.663 152.5,328.663C149.198,328.663 146.511,325.976 146.511,322.674M145.947,351.394L143.102,337.913C142.896,336.891 143.5,335.436 144.368,334.859L149.803,331.248C150.19,331.37 150.592,331.458 151,331.527L154,331.527C154.408,331.458 154.81,331.37 155.197,331.248L160.632,334.859C161.5,335.435 162.104,336.892 161.898,337.913L159.126,351.368C157.04,352.064 154.817,352.456 152.5,352.456C150.211,352.456 148.011,352.075 145.947,351.394M152.5,307.456C139.267,307.456 128.5,318.222 128.5,331.456C128.5,344.689 139.267,355.456 152.5,355.456C165.734,355.456 176.5,344.689 176.5,331.456C176.5,318.222 165.734,307.456 152.5,307.456" style="fill:rgb(26,69,120);fill-rule:nonzero;"/>
        </g>
        <g transform="matrix(1,0,0,1,539.152,227.867)">
            <path d="M186.994,334.548C186.994,335.375 186.318,336.051 185.491,336.051L180,336.051C179.271,340.336 177.559,344.287 175.103,347.667L179.046,351.61C179.631,352.195 179.631,353.151 179.046,353.736L174.736,358.046C174.151,358.631 173.195,358.631 172.61,358.046L168.626,354.062C165.244,356.454 161.309,358.113 157.051,358.798L157.051,364.491C157.051,365.318 156.375,365.994 155.548,365.994L149.453,365.994C148.626,365.994 147.949,365.318 147.949,364.491L147.949,358.753C143.726,358.034 139.827,356.359 136.479,353.958L132.39,358.046C131.806,358.631 130.849,358.631 130.264,358.046L125.954,353.736C125.37,353.151 125.37,352.195 125.954,351.61L130.043,347.521C127.644,344.173 125.969,340.274 125.251,336.051L119.509,336.051C118.683,336.051 118.006,335.375 118.006,334.548L118.006,328.452C118.006,327.626 118.683,326.949 119.509,326.949L125.207,326.949C125.893,322.692 127.551,318.759 129.942,315.379L125.954,311.39C125.37,310.806 125.37,309.849 125.954,309.264L130.264,304.954C130.849,304.37 131.806,304.37 132.39,304.954L136.337,308.901C139.716,306.445 143.667,304.734 147.949,304.005L147.949,298.509C147.949,297.683 148.626,297.006 149.453,297.006L155.548,297.006C156.375,297.006 157.051,297.683 157.051,298.509L157.051,303.96C161.369,304.654 165.354,306.35 168.767,308.797L172.61,304.954C173.195,304.37 174.151,304.37 174.736,304.954L179.046,309.264C179.631,309.849 179.631,310.806 179.046,311.39L175.204,315.232C177.652,318.645 179.349,322.631 180.044,326.949L185.491,326.949C186.318,326.949 186.994,327.626 186.994,328.452L186.994,334.548ZM188.497,323.943L182.704,323.943C182.629,323.943 182.557,323.955 182.484,323.966C181.744,320.982 180.57,318.171 179.029,315.601C179.085,315.559 179.15,315.537 179.201,315.487L183.298,311.39C183.882,310.806 183.882,309.849 183.298,309.264L174.736,300.703C174.151,300.118 173.195,300.118 172.61,300.703L168.514,304.799C168.463,304.85 168.441,304.917 168.399,304.973C165.829,303.432 163.018,302.259 160.035,301.519C160.046,301.446 160.057,301.373 160.057,301.297L160.057,295.503C160.057,294.677 159.381,294 158.554,294L146.446,294C145.62,294 144.943,294.677 144.943,295.503L144.943,301.297C144.943,301.392 144.954,301.485 144.972,301.575C142.01,302.337 139.221,303.527 136.672,305.079C136.613,304.984 136.569,304.882 136.487,304.799L132.39,300.703C131.806,300.118 130.849,300.118 130.264,300.703L121.703,309.264C121.118,309.849 121.118,310.806 121.703,311.39L125.799,315.487C125.904,315.591 126.03,315.654 126.153,315.721C124.636,318.275 123.481,321.064 122.753,324.022C122.608,323.975 122.456,323.943 122.297,323.943L116.503,323.943C115.677,323.943 115,324.62 115,325.446L115,337.554C115,338.381 115.677,339.057 116.503,339.057L122.297,339.057C122.475,339.057 122.645,339.02 122.804,338.962C123.553,341.904 124.725,344.676 126.255,347.212C126.091,347.285 125.933,347.38 125.799,347.514L121.703,351.61C121.118,352.195 121.118,353.151 121.703,353.736L130.264,362.298C130.849,362.882 131.806,362.882 132.39,362.298L136.487,358.201C136.62,358.067 136.715,357.911 136.787,357.747C139.324,359.277 142.095,360.449 145.037,361.199C144.98,361.358 144.943,361.526 144.943,361.704L144.943,367.497C144.943,368.324 145.62,369 146.446,369L158.554,369C159.381,369 160.057,368.324 160.057,367.497L160.057,361.704C160.057,361.546 160.026,361.396 159.98,361.252C162.938,360.523 165.728,359.368 168.283,357.852C168.349,357.973 168.411,358.098 168.514,358.201L172.61,362.298C173.195,362.882 174.151,362.882 174.736,362.298L183.298,353.736C183.882,353.151 183.882,352.195 183.298,351.61L179.201,347.514C179.12,347.433 179.019,347.39 178.926,347.332C180.478,344.782 181.668,341.992 182.43,339.029C182.519,339.046 182.61,339.057 182.704,339.057L188.497,339.057C189.324,339.057 190,338.381 190,337.554L190,325.446C190,324.62 189.324,323.943 188.497,323.943" style="fill:rgb(26,69,120);fill-rule:nonzero;"/>
        </g>
    </g>
</svg>
